<svg width="24" height="25" viewBox="0 0 24 25" fill="none" xmlns="http://www.w3.org/2000/svg">
<path d="M22.9912 4.91017C22.9913 4.73353 22.9446 4.56003 22.8559 4.40731C22.7671 4.2546 22.6395 4.12813 22.486 4.0408C22.3324 3.95346 22.1585 3.90838 21.9819 3.91013C21.8052 3.91189 21.6322 3.96042 21.4805 4.05079C20.8952 4.39917 20.265 4.66597 19.6075 4.84379C18.6684 4.03802 17.4708 3.59709 16.2335 3.6016C14.876 3.60316 13.5724 4.13219 12.5977 5.07698C11.623 6.02177 11.0537 7.30836 11.0098 8.66508C8.33383 8.23834 5.90848 6.8416 4.19629 4.74122C4.09313 4.61605 3.96138 4.51753 3.81216 4.45396C3.66293 4.39039 3.50061 4.36364 3.33887 4.37597C3.17723 4.38928 3.02127 4.44176 2.88447 4.52888C2.74766 4.616 2.63414 4.73513 2.55371 4.87597C2.14124 5.59578 1.90435 6.40272 1.86226 7.23127C1.82018 8.05982 1.9741 8.88662 2.31152 9.64452L2.30957 9.64647C2.15792 9.73987 2.03277 9.87062 1.94608 10.0262C1.85939 10.1818 1.81407 10.357 1.81445 10.5351C1.81262 10.6821 1.82143 10.8289 1.84082 10.9746C1.94296 12.2329 2.50061 13.4107 3.40918 14.2871C3.34755 14.4045 3.30993 14.5331 3.29853 14.6652C3.28712 14.7973 3.30217 14.9304 3.34277 15.0566C3.73889 16.2908 4.58127 17.3327 5.70508 17.9785C4.56333 18.42 3.3305 18.5739 2.11523 18.4267C1.89031 18.3985 1.66246 18.4476 1.46908 18.5659C1.2757 18.6842 1.12826 18.8647 1.05095 19.0778C0.973638 19.2909 0.971045 19.5239 1.0436 19.7387C1.11615 19.9534 1.25953 20.1372 1.45023 20.2597C3.54033 21.6059 5.97391 22.3216 8.46 22.3213C11.2793 22.353 14.03 21.4521 16.2842 19.7587C18.5385 18.0654 20.17 15.6745 20.9248 12.958C21.2779 11.7746 21.4581 10.5464 21.46 9.31153C21.46 9.2461 21.46 9.17872 21.459 9.11134C21.9811 8.54827 22.3856 7.88664 22.6487 7.16523C22.9118 6.44383 23.0282 5.67716 22.9912 4.91017V4.91017ZM19.6846 8.12208C19.5194 8.31742 19.4358 8.56888 19.4512 8.82423C19.4609 8.98923 19.46 9.15523 19.46 9.31153C19.4579 10.3551 19.305 11.3928 19.0059 12.3926C18.3894 14.704 17.015 16.7416 15.103 18.1792C13.1909 19.6167 10.8517 20.371 8.46 20.3213C7.60088 20.3216 6.74472 20.2206 5.90922 20.0205C6.97464 19.6772 7.97081 19.1478 8.8516 18.457C9.01383 18.3293 9.13256 18.1545 9.19149 17.9566C9.25043 17.7587 9.24669 17.5475 9.18078 17.3518C9.11487 17.1561 8.99003 16.9856 8.82338 16.8637C8.65674 16.7418 8.45645 16.6745 8.25 16.6709C7.41884 16.658 6.62513 16.3229 6.03613 15.7363C6.18555 15.708 6.33399 15.6729 6.48145 15.6309C6.69747 15.5694 6.8865 15.437 7.01812 15.255C7.14973 15.073 7.21627 14.852 7.20703 14.6276C7.19778 14.4032 7.11328 14.1885 6.96714 14.0179C6.821 13.8474 6.62171 13.731 6.40137 13.6875C5.91891 13.5922 5.46492 13.387 5.07469 13.0877C4.68446 12.7884 4.3685 12.4032 4.15137 11.9619C4.3321 11.9866 4.51399 12.0019 4.69629 12.0078C4.91288 12.0111 5.12489 11.9454 5.30167 11.8202C5.47845 11.6951 5.61084 11.5169 5.67969 11.3115C5.74567 11.1043 5.74228 10.8812 5.67002 10.6761C5.59777 10.4709 5.4606 10.2949 5.2793 10.1748C4.83945 9.88178 4.47915 9.48423 4.23066 9.01776C3.98217 8.5513 3.85326 8.03048 3.85547 7.50197C3.85547 7.43557 3.85742 7.36916 3.86133 7.30373C6.1026 9.39398 9.00966 10.6262 12.0703 10.7832C12.2248 10.7893 12.3787 10.7602 12.5203 10.6981C12.6619 10.636 12.7875 10.5426 12.8877 10.4248C12.9869 10.3059 13.0571 10.1656 13.0929 10.015C13.1286 9.86433 13.1289 9.70744 13.0937 9.55666C13.0365 9.31802 13.0074 9.07353 13.0068 8.82814C13.0077 7.97267 13.348 7.15251 13.9529 6.5476C14.5578 5.9427 15.3779 5.60247 16.2334 5.60157C16.6735 5.60039 17.1091 5.69047 17.5127 5.86611C17.9163 6.04176 18.279 6.29916 18.5781 6.62208C18.6935 6.74616 18.8386 6.83867 18.9998 6.89081C19.161 6.94295 19.3328 6.95299 19.499 6.91997C19.9098 6.84002 20.3147 6.73236 20.7109 6.59771C20.4407 7.15068 20.0953 7.66365 19.6846 8.12208V8.12208Z" fill="#2B2B2B"/>
</svg>
