<svg width="24" height="25" viewBox="0 0 24 25" fill="none" xmlns="http://www.w3.org/2000/svg">
<path d="M22.54 7.37996C22.4212 6.90537 22.1793 6.47053 21.8387 6.11937C21.498 5.7682 21.0708 5.51315 20.6 5.37996C18.88 4.95996 12 4.95996 12 4.95996C12 4.95996 5.12001 4.95996 3.40001 5.41996C2.92925 5.55315 2.50198 5.8082 2.16135 6.15937C1.82072 6.51053 1.5788 6.94537 1.46001 7.41996C1.14522 9.16552 0.991243 10.9363 1.00001 12.71C0.988786 14.497 1.14277 16.2813 1.46001 18.04C1.59097 18.4998 1.83831 18.9181 2.17815 19.2544C2.51799 19.5908 2.93883 19.8338 3.40001 19.96C5.12001 20.42 12 20.42 12 20.42C12 20.42 18.88 20.42 20.6 19.96C21.0708 19.8268 21.498 19.5717 21.8387 19.2206C22.1793 18.8694 22.4212 18.4346 22.54 17.96C22.8524 16.2275 23.0063 14.4703 23 12.71C23.0112 10.9229 22.8572 9.13866 22.54 7.37996V7.37996Z" stroke="#2B2B2B" stroke-width="2" stroke-linecap="round" stroke-linejoin="round"/>
<path d="M9.75 15.9799L15.5 12.7099L9.75 9.43994V15.9799Z" stroke="#2B2B2B" stroke-width="2" stroke-linecap="round" stroke-linejoin="round"/>
</svg>
