<svg width="24" height="25" viewBox="0 0 24 25" fill="none" xmlns="http://www.w3.org/2000/svg">
<path d="M20.9 2.95996H3.1C2.80826 2.95996 2.52847 3.07585 2.32218 3.28214C2.11589 3.48843 2 3.76822 2 4.05996V21.86C2 22.0044 2.02845 22.1475 2.08373 22.2809C2.13901 22.4144 2.22004 22.5356 2.32218 22.6378C2.42433 22.7399 2.54559 22.8209 2.67905 22.8762C2.81251 22.9315 2.95555 22.96 3.1 22.96H12.68V15.21H10.08V12.21H12.68V9.95996C12.6261 9.43172 12.6885 8.89809 12.8627 8.3965C13.0369 7.89491 13.3188 7.43751 13.6885 7.05637C14.0582 6.67524 14.5068 6.3796 15.0028 6.1902C15.4989 6.0008 16.0304 5.92221 16.56 5.95996C17.3383 5.95517 18.1163 5.99524 18.89 6.07996V8.77996H17.3C16.04 8.77996 15.8 9.37996 15.8 10.25V12.18H18.8L18.41 15.18H15.8V22.96H20.9C21.0445 22.96 21.1875 22.9315 21.321 22.8762C21.4544 22.8209 21.5757 22.7399 21.6778 22.6378C21.78 22.5356 21.861 22.4144 21.9163 22.2809C21.9715 22.1475 22 22.0044 22 21.86V4.05996C22 3.91551 21.9715 3.77247 21.9163 3.63901C21.861 3.50555 21.78 3.38429 21.6778 3.28214C21.5757 3.18 21.4544 3.09897 21.321 3.04369C21.1875 2.98841 21.0445 2.95996 20.9 2.95996V2.95996Z" fill="#2B2B2B"/>
</svg>
