<svg width="24" height="25" viewBox="0 0 24 25" fill="none" xmlns="http://www.w3.org/2000/svg">
<path d="M17.34 6.41996C17.1027 6.41996 16.8707 6.49034 16.6733 6.6222C16.476 6.75406 16.3222 6.94147 16.2313 7.16074C16.1405 7.38001 16.1168 7.62129 16.1631 7.85407C16.2094 8.08685 16.3236 8.30067 16.4915 8.46849C16.6593 8.63631 16.8731 8.7506 17.1059 8.7969C17.3387 8.84321 17.5799 8.81944 17.7992 8.72862C18.0185 8.63779 18.2059 8.48398 18.3378 8.28665C18.4696 8.08931 18.54 7.8573 18.54 7.61996C18.54 7.3017 18.4136 6.99648 18.1885 6.77143C17.9635 6.54639 17.6583 6.41996 17.34 6.41996V6.41996ZM21.94 8.83996C21.9206 8.01026 21.7652 7.18936 21.48 6.40996C21.2257 5.74309 20.83 5.13924 20.32 4.63996C19.8248 4.12739 19.2196 3.73414 18.55 3.48996C17.7727 3.19612 16.9508 3.03717 16.12 3.01996C15.06 2.95996 14.72 2.95996 12 2.95996C9.28 2.95996 8.94 2.95996 7.88 3.01996C7.04915 3.03717 6.22734 3.19612 5.45 3.48996C4.78168 3.73661 4.17693 4.12952 3.68 4.63996C3.16743 5.13514 2.77418 5.7404 2.53 6.40996C2.23616 7.1873 2.07721 8.00911 2.06 8.83996C2 9.89996 2 10.24 2 12.96C2 15.68 2 16.02 2.06 17.08C2.07721 17.9108 2.23616 18.7326 2.53 19.51C2.77418 20.1795 3.16743 20.7848 3.68 21.28C4.17693 21.7904 4.78168 22.1833 5.45 22.43C6.22734 22.7238 7.04915 22.8828 7.88 22.9C8.94 22.96 9.28 22.96 12 22.96C14.72 22.96 15.06 22.96 16.12 22.9C16.9508 22.8828 17.7727 22.7238 18.55 22.43C19.2196 22.1858 19.8248 21.7925 20.32 21.28C20.8322 20.7825 21.2283 20.1782 21.48 19.51C21.7652 18.7306 21.9206 17.9097 21.94 17.08C21.94 16.02 22 15.68 22 12.96C22 10.24 22 9.89996 21.94 8.83996V8.83996ZM20.14 16.96C20.1327 17.5947 20.0178 18.2237 19.8 18.82C19.6403 19.2552 19.3839 19.6484 19.05 19.97C18.7256 20.3005 18.3332 20.5564 17.9 20.72C17.3037 20.9377 16.6748 21.0527 16.04 21.06C15.04 21.11 14.67 21.12 12.04 21.12C9.41 21.12 9.04 21.12 8.04 21.06C7.38089 21.0723 6.72459 20.9708 6.1 20.76C5.68578 20.588 5.31136 20.3327 5 20.01C4.66809 19.6887 4.41484 19.2952 4.26 18.86C4.01586 18.2551 3.88044 17.6119 3.86 16.96C3.86 15.96 3.8 15.59 3.8 12.96C3.8 10.33 3.8 9.95996 3.86 8.95996C3.86448 8.31102 3.98295 7.66791 4.21 7.05996C4.38605 6.63787 4.65626 6.26162 5 5.95996C5.30381 5.61613 5.67929 5.34306 6.1 5.15996C6.70955 4.94 7.352 4.82504 8 4.81996C9 4.81996 9.37 4.75996 12 4.75996C14.63 4.75996 15 4.75996 16 4.81996C16.6348 4.82724 17.2637 4.94221 17.86 5.15996C18.3144 5.32861 18.7223 5.60281 19.05 5.95996C19.3777 6.26714 19.6338 6.64269 19.8 7.05996C20.0223 7.66889 20.1373 8.31174 20.14 8.95996C20.19 9.95996 20.2 10.33 20.2 12.96C20.2 15.59 20.19 15.96 20.14 16.96ZM12 7.82996C10.9858 7.83194 9.99496 8.13449 9.15265 8.69938C8.31035 9.26427 7.65438 10.0662 7.26763 11.0037C6.88089 11.9413 6.78072 12.9724 6.97979 13.9669C7.17886 14.9614 7.66824 15.8745 8.38608 16.5909C9.10392 17.3074 10.018 17.795 11.0129 17.9921C12.0077 18.1892 13.0387 18.0871 13.9755 17.6985C14.9123 17.3099 15.7129 16.6524 16.2761 15.809C16.8394 14.9656 17.14 13.9742 17.14 12.96C17.1413 12.2851 17.0092 11.6166 16.7512 10.9929C16.4933 10.3693 16.1146 9.80277 15.6369 9.32601C15.1592 8.84925 14.5919 8.47164 13.9678 8.21489C13.3436 7.95814 12.6749 7.82732 12 7.82996V7.82996ZM12 16.29C11.3414 16.29 10.6976 16.0947 10.15 15.7288C9.60234 15.3628 9.17552 14.8428 8.92348 14.2343C8.67144 13.6258 8.6055 12.9563 8.73398 12.3103C8.86247 11.6644 9.17963 11.071 9.64533 10.6053C10.111 10.1396 10.7044 9.82243 11.3503 9.69395C11.9963 9.56546 12.6659 9.6314 13.2743 9.88344C13.8828 10.1355 14.4029 10.5623 14.7688 11.1099C15.1347 11.6575 15.33 12.3013 15.33 12.96C15.33 13.3973 15.2439 13.8303 15.0765 14.2343C14.9092 14.6383 14.6639 15.0054 14.3547 15.3146C14.0454 15.6238 13.6784 15.8691 13.2743 16.0365C12.8703 16.2038 12.4373 16.29 12 16.29V16.29Z" fill="#2B2B2B"/>
</svg>
