<svg width="198" height="46" viewBox="0 0 198 46" fill="none" xmlns="http://www.w3.org/2000/svg">
<path d="M46.8283 22.0304C45.478 17.8635 36.3357 10.1864 25.0151 9.54293C24.5281 9.51496 24.0378 9.50158 23.5422 9.5H23.4846C22.9805 9.5 22.4784 9.51496 21.9829 9.54293C10.491 10.1963 1.24522 18.099 0.115268 22.2163C0.0389637 22.4963 0 22.7578 0 23C0 23.2816 0.0543869 23.5927 0.157884 23.9251C1.45749 28.0853 10.6403 35.825 22.0153 36.4586C22.5056 36.485 23.0012 36.5 23.5 36.5C23.9988 36.5 24.4928 36.485 24.9831 36.4586C36.3735 35.825 45.5628 28.0672 46.8474 23.9101C46.9476 23.5825 47 23.278 47 22.9996C47 22.705 46.9424 22.379 46.8287 22.03L46.8283 22.0304ZM35.0292 22.4238H31.7205C31.3439 22.4238 31.0318 22.1407 31.0094 21.7752C30.9449 20.6855 30.7907 19.6053 30.5463 18.5436C30.4343 18.0564 30.884 17.6201 31.3881 17.7221C32.4824 17.9442 33.5652 18.2128 34.627 18.527C34.8441 18.5912 35.0154 18.7543 35.0921 18.9618C35.4095 19.818 35.6299 20.7186 35.737 21.652C35.7845 22.0635 35.4554 22.4242 35.0296 22.4242L35.0292 22.4238ZM35.7334 24.35C35.623 25.2849 35.399 26.1872 35.0783 27.0449C35.0004 27.2508 34.8324 27.4119 34.6152 27.4761C33.5547 27.7939 32.4722 28.0672 31.3796 28.2945C30.8739 28.4 30.4226 27.9601 30.5362 27.4714C30.7838 26.4061 30.9417 25.3196 31.0078 24.2232C31.0318 23.8593 31.3423 23.5762 31.7189 23.5762H35.026C35.4517 23.5762 35.7825 23.9385 35.7334 24.35ZM32.5112 16.7832C31.7749 16.6155 31.0334 16.4705 30.2886 16.3437C30.0358 16.3024 29.8271 16.1315 29.7387 15.8991C29.4314 15.0973 29.0755 14.3187 28.668 13.5646C28.3372 12.9506 29.0483 12.3067 29.6656 12.6541C31.0468 13.4311 32.2599 14.4617 33.234 15.6801C33.6496 16.1988 33.1711 16.9313 32.5112 16.7832ZM29.1023 22.4235H24.7911C24.3974 22.4235 24.0784 22.1139 24.0784 21.7319V17.6473C24.0784 17.2538 24.4161 16.9427 24.8215 16.9557C26.0602 16.9971 27.299 17.0939 28.5223 17.2487C28.8072 17.2849 29.0381 17.4858 29.1161 17.754C29.4878 19.0331 29.7216 20.3484 29.815 21.6886C29.8422 22.0856 29.513 22.4227 29.1023 22.4227V22.4235ZM29.8133 24.3118C29.7184 25.6602 29.4773 26.9854 29.0974 28.2763C29.0174 28.543 28.7885 28.7422 28.5068 28.7785C27.2868 28.938 26.055 29.0419 24.8231 29.0864C24.4177 29.1014 24.0784 28.7899 24.0784 28.3965V24.2673C24.0784 23.8853 24.3974 23.5758 24.7911 23.5758H29.1006C29.513 23.5758 29.8405 23.9133 29.8133 24.3118ZM24.8723 11.1229C26.6445 11.3047 27.4143 13.6086 28.0657 14.9851C28.2962 15.4706 27.8928 16.0106 27.3444 15.9598C26.4876 15.8806 25.6256 15.8263 24.7635 15.8003C24.3799 15.7888 24.078 15.4825 24.078 15.1103V11.8097C24.078 11.3966 24.4497 11.0753 24.8718 11.1233L24.8723 11.1229ZM24.0784 30.9318C24.0784 30.5613 24.3787 30.2553 24.7606 30.2419C25.6105 30.2123 26.4608 30.158 27.3091 30.0757C27.8587 30.0229 28.2645 30.5664 28.032 31.052C27.3814 32.414 26.6239 34.6636 24.8727 34.8432C24.4501 34.8909 24.0788 34.5699 24.0788 34.1568V30.9314L24.0784 30.9318ZM29.664 33.314C29.0462 33.6614 28.3372 33.0159 28.6696 32.402C29.0665 31.6643 29.416 30.9039 29.718 30.1218C29.806 29.8914 30.0114 29.7216 30.2626 29.6787C31.0005 29.5519 31.7356 29.4054 32.4633 29.2376C33.1249 29.086 33.6087 29.8236 33.1878 30.3423C32.2206 31.5375 31.0245 32.5485 29.6636 33.314H29.664ZM22.1781 22.4235H17.8973C17.4866 22.4235 17.1574 22.086 17.1846 21.6894C17.2764 20.3559 17.5105 19.0406 17.8835 17.7579C17.9615 17.4913 18.1924 17.2905 18.4757 17.2542C19.6889 17.0995 20.9154 17.0006 22.1476 16.9577C22.5531 16.9427 22.8908 17.2558 22.8908 17.6492V21.7323C22.8908 22.1143 22.5718 22.4238 22.1781 22.4238V22.4235ZM22.8908 24.2673V28.4047C22.8908 28.7981 22.5547 29.1093 22.1509 29.0963C20.9329 29.06 19.7144 28.9679 18.5114 28.8198C18.2265 28.7852 17.9956 28.5859 17.916 28.3193C17.5276 27.0169 17.2833 25.6768 17.1883 24.3122C17.1595 23.9137 17.4886 23.5762 17.8994 23.5762H22.1785C22.5722 23.5762 22.8912 23.8857 22.8912 24.2677L22.8908 24.2673ZM22.2069 15.8018C21.3533 15.8298 20.5018 15.8826 19.6552 15.9633C19.1072 16.0145 18.7018 15.4742 18.9323 14.9886C19.6268 13.5229 20.1949 11.3481 22.0932 11.128C22.5174 11.0788 22.8908 11.4013 22.8908 11.816V15.1119C22.8908 15.4825 22.5888 15.79 22.2069 15.8018ZM17.3271 12.6722C17.9428 12.3233 18.6523 12.9652 18.3231 13.5776C17.9193 14.3298 17.5645 15.1071 17.2593 15.9054C17.1692 16.1374 16.9622 16.3071 16.7114 16.35C15.9751 16.4737 15.2421 16.6182 14.5156 16.7828C13.8557 16.9325 13.3755 16.2 13.7911 15.6798C14.7583 14.4715 15.9597 13.4472 17.3271 12.6718V12.6722ZM15.6423 28.3618C14.5732 28.1495 13.5095 27.8928 12.4611 27.5915C12.2439 27.5289 12.0727 27.3674 11.9927 27.1618C11.6481 26.271 11.4091 25.3294 11.2938 24.3516C11.2447 23.9385 11.5739 23.5762 12.0012 23.5762H15.2811C15.6577 23.5762 15.9682 23.8593 15.9922 24.2232C16.06 25.3412 16.2231 26.449 16.4792 27.5356C16.5945 28.0227 16.1468 28.4626 15.6427 28.3622L15.6423 28.3618ZM11.2901 21.6512C11.3969 20.7178 11.6177 19.8172 11.9351 18.961C12.0114 18.7535 12.1827 18.5904 12.4002 18.5263C13.4539 18.2151 14.5278 17.9485 15.6103 17.7276C16.1143 17.624 16.5636 18.0619 16.452 18.5491C16.2093 19.6077 16.0551 20.6859 15.9906 21.7744C15.9686 22.1399 15.6561 22.4231 15.2795 22.4231H11.998C11.5722 22.4231 11.2431 22.0623 11.2906 21.6508L11.2901 21.6512ZM14.6345 29.3298C15.3371 29.4846 16.0445 29.6181 16.752 29.7331C17.0048 29.7744 17.2134 29.9438 17.3035 30.1761C17.597 30.9303 17.9347 31.6643 18.3182 32.3791C18.649 32.9931 17.94 33.6417 17.3238 33.2912C16.0157 32.5504 14.8618 31.5805 13.9202 30.4415C13.4944 29.928 13.9709 29.1853 14.6345 29.3302V29.3298ZM22.0932 34.8385C20.3751 34.6393 19.6271 32.4253 18.983 31.0831C18.7489 30.5991 19.1511 30.0556 19.701 30.1052C20.5323 30.1793 21.3671 30.2269 22.2036 30.2501C22.5872 30.2616 22.8908 30.5695 22.8908 30.9417V34.1505C22.8908 34.5652 22.5174 34.8881 22.0932 34.8385Z" fill="#2B2B2B"/>
<path d="M54.9773 36.5V9.95174H61.6608C66.1164 9.95174 68.7898 14.7044 68.7898 23.2444C68.7898 31.7844 66.265 36.5 61.8464 36.5H54.9773ZM58.4304 31.7473H61.3266C64.2599 31.7473 65.2624 28.1828 65.2624 23.2444C65.2624 18.3061 64.2599 14.7044 61.3266 14.7044H58.4304V31.7473ZM71.2581 36.5V9.95174H74.7113V36.5H71.2581ZM84.0255 36.8713C79.904 36.8713 76.8593 33.4182 76.7851 27.5144H80.3125C80.3496 30.5963 81.7234 32.1929 83.9512 32.1929C85.8449 32.1929 86.6246 30.9304 86.6246 29.2967C86.6246 26.6233 85.028 26.0663 82.5774 24.9153C79.904 23.6157 77.342 21.982 77.342 17.155C77.342 11.9568 79.8298 9.58044 83.2829 9.58044C86.9588 9.58044 89.6693 12.6994 89.8178 17.9719H86.3276C86.1419 15.5956 85.1023 14.2589 83.2829 14.2589C81.7977 14.2589 80.8694 15.0757 80.8694 16.7466C80.8694 18.9744 82.0576 19.5685 84.0998 20.5339C87.1073 21.9449 90.152 23.2816 90.152 28.814C90.152 33.6038 87.9985 36.8713 84.0255 36.8713ZM92.4704 36.5V9.95174H99.6737C103.201 9.95174 105.243 12.6994 105.243 17.5635C105.243 21.128 103.981 23.4301 102.087 24.1356V24.2098C105.986 25.3609 104.575 35.7203 105.466 36.1658V36.5H101.864C101.122 35.3861 102.57 26.8461 99.0053 26.8461H95.9235V36.5H92.4704ZM95.9235 22.0934H98.9682C100.825 22.0934 101.79 20.8681 101.79 18.3432C101.79 15.8926 100.899 14.7044 98.9682 14.7044H95.9235V22.0934ZM114.085 36.8713C109.444 36.8713 107.587 33.2697 107.587 27.1431V9.95174H111.041V27.1431C111.041 30.6705 112.043 32.1186 114.085 32.1186C116.165 32.1186 117.167 30.6705 117.167 27.1431V9.95174H120.62V27.1431C120.62 33.2697 118.764 36.8713 114.085 36.8713ZM123.545 36.5V9.95174H130.86C134.09 9.95174 136.207 12.6251 136.207 18.1947C136.207 23.7643 134.09 26.4748 130.86 26.4748H126.998V36.5H123.545ZM126.998 21.7221H130.229C131.788 21.7221 132.679 20.7196 132.679 18.1947C132.679 15.707 131.788 14.7044 130.229 14.7044H126.998V21.7221ZM141.543 36.5V14.7044H136.716V9.95174H149.786V14.7044H144.996V36.5H141.543ZM157.871 36.8713C152.933 36.8713 150.037 31.079 150.037 23.2073C150.037 15.3357 152.933 9.58044 157.871 9.58044C162.81 9.58044 165.743 15.3357 165.743 23.2073C165.743 31.079 162.81 36.8713 157.871 36.8713ZM153.564 23.2073C153.564 28.0343 154.641 32.1186 157.871 32.1186C161.102 32.1186 162.216 28.0343 162.216 23.2073C162.216 18.4175 161.102 14.3331 157.871 14.3331C154.641 14.3331 153.564 18.4175 153.564 23.2073ZM168.145 36.5V9.95174H175.349C178.876 9.95174 180.918 12.6994 180.918 17.5635C180.918 21.128 179.656 23.4301 177.762 24.1356V24.2098C181.661 25.3609 180.25 35.7203 181.141 36.1658V36.5H177.539C176.797 35.3861 178.245 26.8461 174.68 26.8461H171.598V36.5H168.145ZM171.598 22.0934H174.643C176.5 22.0934 177.465 20.8681 177.465 18.3432C177.465 15.8926 176.574 14.7044 174.643 14.7044H171.598V22.0934ZM189.833 36.8713C185.711 36.8713 182.667 33.4182 182.592 27.5144H186.12C186.157 30.5963 187.531 32.1929 189.758 32.1929C191.652 32.1929 192.432 30.9304 192.432 29.2967C192.432 26.6233 190.835 26.0663 188.385 24.9153C185.711 23.6157 183.149 21.982 183.149 17.155C183.149 11.9568 185.637 9.58044 189.09 9.58044C192.766 9.58044 195.477 12.6994 195.625 17.9719H192.135C191.949 15.5956 190.91 14.2589 189.09 14.2589C187.605 14.2589 186.677 15.0757 186.677 16.7466C186.677 18.9744 187.865 19.5685 189.907 20.5339C192.915 21.9449 195.959 23.2816 195.959 28.814C195.959 33.6038 193.806 36.8713 189.833 36.8713Z" fill="#2B2B2B"/>
</svg>
